STARTFONT 2.1
FONT -Adobe-ITC Bookman-Light-I-Normal--25-180-100-100-P-140-ISO8859-1
SIZE 18 100 100
FONTBOUNDINGBOX 37 24 -7 -6

STARTPROPERTIES 26
_DEC_DEVICE_FONTNAMES "PS=Bookman-LightItalic"
FONTNAME_REGISTRY ""
FAMILY_NAME "ITC Bookman"
FOUNDRY "Adobe"
WEIGHT_NAME "Light"
SLANT "I"
SETWIDTH_NAME "Normal"
ADD_STYLE_NAME ""
PIXEL_SIZE 25
POINT_SIZE 180
RESOLUTION_X 100
RESOLUTION_Y 100
SPACING "P"
AVERAGE_WIDTH 140
CHARSET_REGISTRY "ISO8859"
CHARSET_ENCODING "1"
CHARSET_COLLECTIONS "ASCII ISO8859-1 ADOBE-STANDARD"
FULL_NAME "ITC Bookman Light Italic"
COPYRIGHT "Copyright (c) 1991 Adobe Systems, Inc."
CAP_HEIGHT 17
X_HEIGHT 12
WEIGHT 10
QUAD_WIDTH 19
DEFAULT_CHAR 0
FONT_DESCENT 6
FONT_ASCENT 18
ENDPROPERTIES

CHARS 190

STARTCHAR space
ENCODING 32
SWIDTH 312 0
DWIDTH 9 0
BBX 1 1 0 0
BITMAP
00
ENDCHAR

STARTCHAR exclam
ENCODING 33
SWIDTH 329 0
DWIDTH 8 0
BBX 7 17 0 0
BITMAP
04
0E
0E
0C
0C
18
18
18
18
30
30
30
20
00
60
E0
E0
ENDCHAR

STARTCHAR quotedbl
ENCODING 34
SWIDTH 364 0
DWIDTH 9 0
BBX 7 6 2 11
BITMAP
66
66
66
44
88
88
ENDCHAR

STARTCHAR numbersign
ENCODING 35
SWIDTH 613 0
DWIDTH 15 0
BBX 14 17 0 0
BITMAP
0630
0630
0630
0630
0630
0630
7FFC
0C60
0C60
0C60
0C60
FFF8
18C0
18C0
18C0
18C0
18C0
ENDCHAR

STARTCHAR dollar
ENCODING 36
SWIDTH 613 0
DWIDTH 15 0
BBX 13 20 0 -2
BITMAP
00C0
00C0
07E0
1FF8
1998
3198
3980
1F00
0F80
03E0
03F0
0338
6318
E638
E630
76E0
1F80
0C00
0C00
0C00
ENDCHAR

STARTCHAR percent
ENCODING 37
SWIDTH 795 0
DWIDTH 20 0
BBX 19 17 0 0
BITMAP
1E0100
330300
618600
618C00
C18C00
C19800
C33000
C36780
664CC0
3CD860
019860
033060
063060
0630C0
0C30C0
181980
100F00
ENDCHAR

STARTCHAR ampersand
ENCODING 38
SWIDTH 829 0
DWIDTH 21 0
BBX 19 17 0 0
BITMAP
01F000
03B800
071800
061800
063800
077000
03C100
0F8380
3DC380
70E180
607100
E03B00
E01E40
E01CE0
703CE0
7EEE40
1F8380
ENDCHAR

STARTCHAR quoteright
ENCODING 39
SWIDTH 272 0
DWIDTH 7 0
BBX 3 6 4 11
BITMAP
60
E0
E0
60
C0
80
ENDCHAR

STARTCHAR parenleft
ENCODING 40
SWIDTH 279 0
DWIDTH 7 0
BBX 8 21 0 -4
BITMAP
03
06
0C
18
38
30
70
60
60
60
E0
C0
C0
C0
C0
C0
C0
C0
60
60
30
ENDCHAR

STARTCHAR parenright
ENCODING 41
SWIDTH 279 0
DWIDTH 7 0
BBX 8 21 -2 -4
BITMAP
08
0C
06
06
03
03
03
03
03
03
07
06
06
06
0C
0C
1C
18
30
60
C0
ENDCHAR

STARTCHAR asterisk
ENCODING 42
SWIDTH 447 0
DWIDTH 11 0
BBX 9 9 2 8
BITMAP
0400
0C00
6D80
7F00
1C00
7E00
DB00
1800
1000
ENDCHAR

STARTCHAR plus
ENCODING 43
SWIDTH 613 0
DWIDTH 15 0
BBX 12 12 1 0
BITMAP
0600
0600
0600
0600
0600
FFF0
FFF0
0600
0600
0600
0600
0600
ENDCHAR

STARTCHAR comma
ENCODING 44
SWIDTH 306 0
DWIDTH 8 0
BBX 3 6 1 -3
BITMAP
60
E0
E0
60
C0
80
ENDCHAR

STARTCHAR minus
ENCODING 45
SWIDTH 606 0
DWIDTH 15 0
BBX 12 2 1 5
BITMAP
FFF0
FFF0
ENDCHAR

STARTCHAR period
ENCODING 46
SWIDTH 306 0
DWIDTH 8 0
BBX 3 3 1 0
BITMAP
60
E0
E0
ENDCHAR

STARTCHAR slash
ENCODING 47
SWIDTH 393 0
DWIDTH 10 0
BBX 12 21 -2 -4
BITMAP
0030
0020
0060
0040
00C0
0080
0180
0100
0300
0200
0600
0400
0C00
0800
1800
1000
3000
2000
6000
4000
C000
ENDCHAR

STARTCHAR zero
ENCODING 48
SWIDTH 613 0
DWIDTH 15 0
BBX 14 17 0 0
BITMAP
03E0
0F78
1818
301C
700C
600C
600C
E00C
C00C
C01C
C018
C018
C038
E030
6060
7BC0
1F00
ENDCHAR

STARTCHAR one
ENCODING 49
SWIDTH 613 0
DWIDTH 15 0
BBX 8 17 3 0
BITMAP
0F
3F
06
06
0E
0C
0C
1C
18
18
18
18
38
30
30
70
F8
ENDCHAR

STARTCHAR two
ENCODING 50
SWIDTH 616 0
DWIDTH 15 0
BBX 14 17 0 0
BITMAP
07F0
1F78
381C
300C
700C
301C
0018
0038
0070
00E0
01C0
0380
0E08
1C18
7030
FFF0
FFE0
ENDCHAR

STARTCHAR three
ENCODING 51
SWIDTH 613 0
DWIDTH 15 0
BBX 14 17 0 0
BITMAP
07E0
1F78
381C
380C
300C
001C
0038
03E0
03F0
0038
0018
0018
4018
E038
E070
7BE0
3F80
ENDCHAR

STARTCHAR four
ENCODING 52
SWIDTH 613 0
DWIDTH 15 0
BBX 14 17 0 0
BITMAP
0030
0070
00F0
01E0
0360
0660
0C60
18E0
30C0
60C0
C0C0
FFFC
FFF8
0180
0180
0380
07C0
ENDCHAR

STARTCHAR five
ENCODING 53
SWIDTH 613 0
DWIDTH 15 0
BBX 13 17 0 0
BITMAP
1FF8
1FF0
1800
1000
3000
37E0
3EF0
3038
2018
0018
0018
0018
6030
E030
E0E0
73C0
3F00
ENDCHAR

STARTCHAR six
ENCODING 54
SWIDTH 613 0
DWIDTH 15 0
BBX 14 17 0 0
BITMAP
01F0
07B8
0E1C
181C
3800
3000
73E0
6F78
7838
E01C
E01C
C01C
C018
E038
7070
7DE0
1F80
ENDCHAR

STARTCHAR seven
ENCODING 55
SWIDTH 613 0
DWIDTH 15 0
BBX 13 17 1 0
BITMAP
7FF8
7FF8
C018
8030
0060
00E0
01C0
0380
0700
0600
0E00
0C00
1C00
1800
3800
3800
3800
ENDCHAR

STARTCHAR eight
ENCODING 56
SWIDTH 613 0
DWIDTH 15 0
BBX 14 17 0 0
BITMAP
03F0
0FB8
1C0C
180C
300C
381C
1C38
0FE0
1FE0
7870
6038
C018
C018
C038
E070
7DE0
1F80
ENDCHAR

STARTCHAR nine
ENCODING 57
SWIDTH 613 0
DWIDTH 15 0
BBX 14 17 0 0
BITMAP
03E0
0F78
1C18
381C
300C
700C
601C
701C
7038
3CF8
1FD8
0038
0030
E070
E0E0
7BC0
3F00
ENDCHAR

STARTCHAR colon
ENCODING 58
SWIDTH 306 0
DWIDTH 8 0
BBX 5 12 1 0
BITMAP
18
38
38
00
00
00
00
00
00
60
E0
E0
ENDCHAR

STARTCHAR semicolon
ENCODING 59
SWIDTH 306 0
DWIDTH 8 0
BBX 5 15 1 -3
BITMAP
18
38
38
00
00
00
00
00
00
60
E0
E0
60
C0
80
ENDCHAR

STARTCHAR less
ENCODING 60
SWIDTH 681 0
DWIDTH 15 0
BBX 14 13 0 0
BITMAP
001C
0078
01E0
0780
1E00
7800
E000
7800
1E00
0780
01E0
0078
001C
ENDCHAR

STARTCHAR equal
ENCODING 61
SWIDTH 612 0
DWIDTH 15 0
BBX 11 6 1 3
BITMAP
FFE0
FFE0
0000
0000
FFE0
FFE0
ENDCHAR

STARTCHAR greater
ENCODING 62
SWIDTH 681 0
DWIDTH 15 0
BBX 14 13 0 0
BITMAP
E000
7800
1E00
0780
01E0
0078
001C
0078
01E0
0780
1E00
7800
E000
ENDCHAR

STARTCHAR question
ENCODING 63
SWIDTH 537 0
DWIDTH 13 0
BBX 12 17 1 0
BITMAP
0F80
3DE0
7070
E030
E030
4070
00E0
03C0
0700
0E00
0C00
1800
1000
0000
3000
7000
7000
ENDCHAR

STARTCHAR at
ENCODING 64
SWIDTH 780 0
DWIDTH 20 0
BBX 17 17 1 0
BITMAP
07F000
1C1C00
300600
60DB00
43B900
C71980
8E3080
8C3080
9C6080
986180
98C100
D8C300
4FEC00
677900
300600
1C1C00
07F000
ENDCHAR

STARTCHAR A
ENCODING 65
SWIDTH 687 0
DWIDTH 17 0
BBX 17 17 -2 0
BITMAP
003800
007800
007800
00CC00
00CC00
018C00
038C00
030C00
070E00
060600
0FFE00
1FFE00
180600
380700
300300
700300
F80780
ENDCHAR

STARTCHAR B
ENCODING 66
SWIDTH 712 0
DWIDTH 17 0
BBX 18 17 -2 0
BITMAP
1FFE00
0FFF80
0601C0
0600C0
0E01C0
0C0180
0C0700
0FFC00
0FFF00
1C0780
180380
180180
180180
380380
300F00
7FFE00
FFF000
ENDCHAR

STARTCHAR C
ENCODING 67
SWIDTH 714 0
DWIDTH 18 0
BBX 17 17 0 0
BITMAP
01FC80
07DF80
1E0380
380180
380080
700080
600000
E00000
E00000
E00000
C00000
C00000
E00300
700600
701C00
3EF800
0FE000
ENDCHAR

STARTCHAR D
ENCODING 68
SWIDTH 744 0
DWIDTH 19 0
BBX 18 17 0 0
BITMAP
1FFC00
0FFF00
0C0780
0C0180
1C01C0
1801C0
1800C0
1800C0
3801C0
3001C0
300180
300380
300300
700F00
603E00
7FF800
FFE000
ENDCHAR

STARTCHAR E
ENCODING 69
SWIDTH 685 0
DWIDTH 17 0
BBX 17 17 -1 0
BITMAP
1FFF00
0FFF80
0C0180
0C0080
1C0000
181000
183000
1FF000
3FE000
306000
302000
300000
300000
700200
600600
7FFC00
FFFC00
ENDCHAR

STARTCHAR F
ENCODING 70
SWIDTH 617 0
DWIDTH 15 0
BBX 17 17 -2 0
BITMAP
0FFF00
07FF80
060180
060080
0E0000
0C0800
0C1800
0FF800
1FF000
183000
181000
180000
180000
380000
300000
700000
FC0000
ENDCHAR

STARTCHAR G
ENCODING 71
SWIDTH 759 0
DWIDTH 19 0
BBX 18 17 0 0
BITMAP
01FC80
07DF80
1E0380
380380
380180
700080
600000
E00000
E00000
E01FC0
C00380
C00300
E00300
700E00
701E00
3EF600
0FE600
ENDCHAR

STARTCHAR H
ENCODING 72
SWIDTH 788 0
DWIDTH 18 0
BBX 21 17 -2 0
BITMAP
0F80F8
070070
060060
060060
0E00E0
0C00C0
0C00C0
1FFFC0
1FFF80
180180
180180
180180
380380
300300
300300
700700
F80F80
ENDCHAR

STARTCHAR I
ENCODING 73
SWIDTH 312 0
DWIDTH 8 0
BBX 9 17 -1 0
BITMAP
0F80
0700
0600
0600
0E00
0C00
0C00
0C00
1C00
1800
1800
1800
1800
3800
3000
7000
F800
ENDCHAR

STARTCHAR J
ENCODING 74
SWIDTH 560 0
DWIDTH 14 0
BBX 16 17 -1 0
BITMAP
001F
000E
000C
000C
001C
0018
0018
0018
0038
0030
0030
6030
E030
C060
E0E0
7BC0
3F80
ENDCHAR

STARTCHAR K
ENCODING 75
SWIDTH 714 0
DWIDTH 18 0
BBX 19 17 -2 0
BITMAP
0F83E0
070380
060700
060E00
0E1C00
0C3800
0CF000
0DF000
1FB800
1E1800
1C1C00
180C00
380E00
380600
300700
700380
FC07C0
ENDCHAR

STARTCHAR L
ENCODING 76
SWIDTH 579 0
DWIDTH 14 0
BBX 14 17 -1 0
BITMAP
1F00
0E00
0C00
0C00
1C00
1800
1800
1800
3800
3000
3000
3000
3000
7004
600C
7FF8
FFF0
ENDCHAR

STARTCHAR M
ENCODING 77
SWIDTH 855 0
DWIDTH 21 0
BBX 23 17 -2 0
BITMAP
0F803E
07807C
05806C
0D80CC
0D80DC
0D8198
0CC198
18C318
18C338
18C630
18C630
18CC30
30CC30
305870
307860
7070E0
F871F0
ENDCHAR

STARTCHAR N
ENCODING 78
SWIDTH 709 0
DWIDTH 17 0
BBX 21 17 -3 0
BITMAP
0F00F8
078070
078060
05C060
0CC0C0
0CE0C0
0C60C0
0C70C0
083080
183980
181980
181D80
180D80
100F00
300700
700700
F80300
ENDCHAR

STARTCHAR O
ENCODING 79
SWIDTH 759 0
DWIDTH 19 0
BBX 18 17 0 0
BITMAP
01FC00
07DF00
1E0380
380380
3801C0
7000C0
6000C0
E001C0
E001C0
E001C0
C00180
C00380
E00300
700F00
701E00
3EF800
0FE000
ENDCHAR

STARTCHAR P
ENCODING 80
SWIDTH 588 0
DWIDTH 15 0
BBX 16 17 -1 0
BITMAP
1FF8
0FFE
0C07
0C03
1C03
1803
1806
181E
3FFC
3FE0
3000
3000
3000
7000
6000
6000
F800
ENDCHAR

STARTCHAR Q
ENCODING 81
SWIDTH 778 0
DWIDTH 19 0
BBX 18 22 0 -5
BITMAP
01FC00
07DF00
1E0380
380380
3801C0
7000C0
6000C0
E001C0
E001C0
E001C0
C00180
C00380
E0E300
73FF00
723E00
3EFC00
0FE600
C00600
E00E00
E01C00
787800
1FE000
ENDCHAR

STARTCHAR R
ENCODING 82
SWIDTH 702 0
DWIDTH 17 0
BBX 17 17 -1 0
BITMAP
1FFE00
0FFF00
060380
060180
0C0180
0C0380
0C0700
0FFE00
1FF800
186000
187000
183000
183800
301800
301C00
700E00
F80F00
ENDCHAR

STARTCHAR S
ENCODING 83
SWIDTH 644 0
DWIDTH 17 0
BBX 15 17 0 0
BITMAP
07F4
1FFC
381C
3006
3002
3800
1E00
0FC0
03F0
007C
000E
8006
C006
C00E
F01C
7FF8
4FE0
ENDCHAR

STARTCHAR T
ENCODING 84
SWIDTH 596 0
DWIDTH 16 0
BBX 16 17 0 0
BITMAP
1FFE
3FFE
60C3
C1C1
0180
0180
0180
0380
0300
0300
0300
0300
0700
0600
0600
0E00
1F00
ENDCHAR

STARTCHAR U
ENCODING 85
SWIDTH 729 0
DWIDTH 17 0
BBX 18 17 0 0
BITMAP
7C07C0
380380
380300
300300
300300
700600
600600
600600
600600
E00C00
C00C00
C00C00
C01C00
C01800
E07000
7FE000
3FC000
ENDCHAR

STARTCHAR V
ENCODING 86
SWIDTH 664 0
DWIDTH 16 0
BBX 18 17 0 0
BITMAP
FE07C0
780380
300700
300600
380E00
181C00
181800
183800
183000
1C7000
0C6000
0CC000
0DC000
0F8000
070000
070000
060000
ENDCHAR

STARTCHAR W
ENCODING 87
SWIDTH 943 0
DWIDTH 23 0
BBX 24 17 0 0
BITMAP
FEFC1F
70780E
30301C
303018
383038
183870
183860
1878E0
1878C0
1CD9C0
0CDD80
0D8F00
0D8F00
0F0E00
070C00
060C00
040800
ENDCHAR

STARTCHAR X
ENCODING 88
SWIDTH 691 0
DWIDTH 17 0
BBX 20 17 -2 0
BITMAP
1FE3F0
0701C0
038180
038300
01C600
01CC00
00F800
00F000
007000
00F000
01B800
031800
061C00
0C0C00
180E00
380F00
FC1F80
ENDCHAR

STARTCHAR Y
ENCODING 89
SWIDTH 658 0
DWIDTH 15 0
BBX 17 17 0 0
BITMAP
FC0F80
700700
300600
380C00
181800
1C3000
0C6000
0EC000
078000
070000
060000
060000
0E0000
0C0000
0C0000
1C0000
3E0000
ENDCHAR

STARTCHAR Z
ENCODING 90
SWIDTH 586 0
DWIDTH 16 0
BBX 16 17 -1 0
BITMAP
0FFF
1FFF
1806
301C
2038
0070
00E0
01C0
0380
0700
0E00
1C00
3802
7006
C00C
FFFC
FFF8
ENDCHAR

STARTCHAR bracketleft
ENCODING 91
SWIDTH 269 0
DWIDTH 8 0
BBX 8 20 0 -3
BITMAP
0F
0C
0C
0C
18
18
18
18
30
30
30
30
60
60
60
60
C0
C0
C0
E0
ENDCHAR

STARTCHAR backslash
ENCODING 92
SWIDTH 592 0
DWIDTH 15 0
BBX 10 17 2 0
BITMAP
C000
4000
6000
2000
3000
1000
1800
0800
0C00
0400
0600
0200
0300
0100
0180
0080
00C0
ENDCHAR

STARTCHAR bracketright
ENCODING 93
SWIDTH 269 0
DWIDTH 8 0
BBX 8 20 -1 -3
BITMAP
0F
03
03
03
06
06
06
06
0C
0C
0C
0C
18
18
18
18
30
30
30
F0
ENDCHAR

STARTCHAR asciicircum
ENCODING 94
SWIDTH 681 0
DWIDTH 15 0
BBX 12 12 1 5
BITMAP
0600
0600
0F00
0900
1980
1980
30C0
30C0
6060
6060
C030
C030
ENDCHAR

STARTCHAR underscore
ENCODING 95
SWIDTH 718 0
DWIDTH 13 0
BBX 13 2 -1 -4
BITMAP
FFF8
FFF8
ENDCHAR

STARTCHAR quoteleft
ENCODING 96
SWIDTH 272 0
DWIDTH 7 0
BBX 3 6 2 11
BITMAP
20
60
C0
E0
E0
C0
ENDCHAR

STARTCHAR a
ENCODING 97
SWIDTH 615 0
DWIDTH 15 0
BBX 14 12 0 0
BITMAP
07D8
1E78
3830
7030
6030
E030
C060
C060
C060
60E4
73FC
1F38
ENDCHAR

STARTCHAR b
ENCODING 98
SWIDTH 592 0
DWIDTH 15 0
BBX 13 17 0 0
BITMAP
1800
7800
1800
1800
3000
31C0
37F0
3C30
3818
3018
7018
6018
6038
6030
F070
DDE0
CF80
ENDCHAR

STARTCHAR c
ENCODING 99
SWIDTH 484 0
DWIDTH 12 0
BBX 11 12 0 0
BITMAP
0F80
3CE0
7060
6060
E000
C000
C000
C000
C000
60E0
73C0
1F00
ENDCHAR

STARTCHAR d
ENCODING 100
SWIDTH 622 0
DWIDTH 15 0
BBX 14 17 0 0
BITMAP
000C
003C
000C
000C
0018
0F98
3CF8
7038
6030
E030
C030
C030
C060
C060
60E0
73F4
1F38
ENDCHAR

STARTCHAR e
ENCODING 101
SWIDTH 527 0
DWIDTH 13 0
BBX 12 12 0 0
BITMAP
07E0
1E70
3830
7030
60E0
E3C0
FF00
C000
C000
C060
61C0
3F00
ENDCHAR

STARTCHAR f
ENCODING 102
SWIDTH 342 0
DWIDTH 8 0
BBX 16 23 -6 -6
BITMAP
001E
0037
0063
0060
0060
03FC
0060
00C0
00C0
00C0
00C0
00C0
0180
0180
0180
0180
0180
0300
0300
0300
C300
E600
7C00
ENDCHAR

STARTCHAR g
ENCODING 103
SWIDTH 562 0
DWIDTH 14 0
BBX 14 18 -1 -6
BITMAP
03CC
0F6C
1C3C
3818
3018
7018
6018
6030
6070
30F0
3BB0
0F30
0060
0060
0060
C0C0
F380
7F00
ENDCHAR

STARTCHAR h
ENCODING 104
SWIDTH 626 0
DWIDTH 15 0
BBX 13 17 0 0
BITMAP
1C00
7C00
1800
1800
1800
33E0
3E70
3830
3030
3030
6060
6060
6060
60C0
C0C8
C0F0
C060
ENDCHAR

STARTCHAR i
ENCODING 105
SWIDTH 285 0
DWIDTH 7 0
BBX 6 17 0 0
BITMAP
08
1C
1C
08
00
38
F8
30
30
20
60
60
60
C0
C0
EC
70
ENDCHAR

STARTCHAR j
ENCODING 106
SWIDTH 265 0
DWIDTH 7 0
BBX 13 23 -7 -6
BITMAP
0010
0038
0038
0010
0000
0030
00F0
0030
0030
0060
0060
0060
0060
00C0
00C0
00C0
00C0
00C0
0180
0180
6180
7300
3E00
ENDCHAR

STARTCHAR k
ENCODING 107
SWIDTH 594 0
DWIDTH 15 0
BBX 13 17 1 0
BITMAP
1800
7800
1800
1800
3000
3030
3078
31F0
7380
6600
6E00
7B00
7180
E180
C0C0
C0F0
C060
ENDCHAR

STARTCHAR l
ENCODING 108
SWIDTH 287 0
DWIDTH 7 0
BBX 6 17 0 0
BITMAP
38
18
18
10
30
30
30
30
70
60
60
60
60
C0
C0
EC
70
ENDCHAR

STARTCHAR m
ENCODING 109
SWIDTH 887 0
DWIDTH 22 0
BBX 21 12 0 0
BITMAP
33E3E0
FE7E70
383830
303030
303030
606060
606060
606060
6060C0
C0C0C8
C0C0F0
C0C060
ENDCHAR

STARTCHAR n
ENCODING 110
SWIDTH 607 0
DWIDTH 15 0
BBX 13 12 0 0
BITMAP
33E0
FE70
3830
3030
3030
6060
6060
6060
60C0
C0C8
C0F0
C060
ENDCHAR

STARTCHAR o
ENCODING 111
SWIDTH 547 0
DWIDTH 14 0
BBX 12 12 0 0
BITMAP
0F80
3CE0
7060
6030
E030
C030
C030
C070
C060
60E0
73C0
1F00
ENDCHAR

STARTCHAR p
ENCODING 112
SWIDTH 593 0
DWIDTH 15 0
BBX 16 18 -3 -6
BITMAP
0638
1EFE
0786
0703
0603
0E03
0C03
0C07
0C06
1E0E
1BBC
19F0
1800
3800
3000
3000
7000
FC00
ENDCHAR

STARTCHAR q
ENCODING 113
SWIDTH 562 0
DWIDTH 14 0
BBX 13 18 0 -6
BITMAP
0788
1ED8
3878
7030
6030
E030
C030
C060
C0E0
61E0
7760
1EC0
00C0
00C0
0180
0180
0380
07C0
ENDCHAR

STARTCHAR r
ENCODING 114
SWIDTH 405 0
DWIDTH 10 0
BBX 10 12 0 0
BITMAP
1980
7BC0
3CC0
3000
3000
6000
6000
6000
6000
C000
C000
C000
ENDCHAR

STARTCHAR s
ENCODING 115
SWIDTH 528 0
DWIDTH 13 0
BBX 11 12 0 0
BITMAP
0F80
38E0
3060
3000
3800
1E00
0780
01C0
40C0
E0C0
71C0
3F00
ENDCHAR

STARTCHAR t
ENCODING 116
SWIDTH 346 0
DWIDTH 9 0
BBX 8 16 1 0
BITMAP
08
08
18
38
FF
30
30
70
60
60
60
60
C0
C0
C4
78
ENDCHAR

STARTCHAR u
ENCODING 117
SWIDTH 619 0
DWIDTH 15 0
BBX 13 12 0 0
BITMAP
3030
F030
3030
6060
6060
6060
E060
C0C0
C0C0
C0C0
F3C8
7C70
ENDCHAR

STARTCHAR v
ENCODING 118
SWIDTH 522 0
DWIDTH 13 0
BBX 11 12 1 0
BITMAP
70C0
F1C0
30E0
6060
6060
6060
C060
C0C0
C0C0
C180
E700
7C00
ENDCHAR

STARTCHAR w
ENCODING 119
SWIDTH 861 0
DWIDTH 22 0
BBX 19 12 1 0
BITMAP
3030C0
F031C0
3030E0
606060
606060
606060
E06060
C0C0C0
C0C0C0
C0C180
F3F700
7C7C00
ENDCHAR

STARTCHAR x
ENCODING 120
SWIDTH 542 0
DWIDTH 13 0
BBX 14 12 -1 0
BITMAP
3C0C
0E1C
0638
0760
03C0
0380
0380
0580
0DC0
78C0
F0FC
4070
ENDCHAR

STARTCHAR y
ENCODING 121
SWIDTH 597 0
DWIDTH 15 0
BBX 13 18 0 -6
BITMAP
1818
7818
1818
3030
3030
3030
7030
6060
6060
6060
79E0
3EC0
00C0
01C0
0180
C180
E700
7E00
ENDCHAR

STARTCHAR z
ENCODING 122
SWIDTH 513 0
DWIDTH 13 0
BBX 11 12 0 0
BITMAP
3F60
70E0
61C0
6380
0700
0E00
1C00
3800
7000
E060
E0E0
DFC0
ENDCHAR

STARTCHAR braceleft
ENCODING 123
SWIDTH 374 0
DWIDTH 9 0
BBX 9 22 0 -5
BITMAP
0380
0600
0C00
0C00
0C00
1800
1800
1800
1800
3000
E000
3000
3000
3000
6000
6000
6000
6000
C000
C000
C000
7000
ENDCHAR

STARTCHAR bar
ENCODING 124
SWIDTH 175 0
DWIDTH 7 0
BBX 2 17 2 0
BITMAP
C0
C0
C0
C0
C0
C0
C0
C0
C0
C0
C0
C0
C0
C0
C0
C0
C0
ENDCHAR

STARTCHAR braceright
ENCODING 125
SWIDTH 374 0
DWIDTH 10 0
BBX 10 22 -1 -5
BITMAP
0700
0180
0180
0180
0180
0180
0300
0300
0300
0300
01C0
0200
0600
0600
0C00
0C00
0C00
1800
1800
1800
3000
E000
ENDCHAR

STARTCHAR asciitilde
ENCODING 126
SWIDTH 613 0
DWIDTH 15 0
BBX 14 5 0 5
BITMAP
1C00
3E0C
6318
C1F0
00E0
ENDCHAR

STARTCHAR exclamdown
ENCODING 161
SWIDTH 329 0
DWIDTH 8 0
BBX 7 17 -1 -5
BITMAP
0E
0E
0C
00
08
18
18
18
30
30
30
30
60
60
E0
E0
40
ENDCHAR

STARTCHAR cent
ENCODING 162
SWIDTH 613 0
DWIDTH 15 0
BBX 12 20 1 -2
BITMAP
0080
0180
0180
0100
07C0
1FE0
3930
7370
6260
E200
C200
C600
C400
E460
7FC0
1F00
0400
0C00
0C00
0800
ENDCHAR

STARTCHAR sterling
ENCODING 163
SWIDTH 613 0
DWIDTH 15 0
BBX 15 17 -1 0
BITMAP
00F8
03DC
030C
070C
0718
0300
0380
1FF0
0380
0180
0180
0180
019C
7B06
CF86
DDFC
7878
ENDCHAR

STARTCHAR currency
ENCODING 164
SWIDTH 613 0
DWIDTH 15 0
BBX 11 11 1 3
BITMAP
DF60
FFE0
60C0
C060
C060
C060
C060
C060
60C0
FFE0
DF60
ENDCHAR

STARTCHAR yen
ENCODING 165
SWIDTH 615 0
DWIDTH 15 0
BBX 15 17 0 0
BITMAP
FC7E
3838
3830
1860
18C0
7CF0
0D80
0F00
0E00
FFE0
0C00
0C00
1C00
1800
1800
3800
7C00
ENDCHAR

STARTCHAR brokenbar
ENCODING 166
SWIDTH 175 0
DWIDTH 7 0
BBX 2 17 2 0
BITMAP
C0
C0
C0
C0
C0
C0
00
00
00
00
00
C0
C0
C0
C0
C0
C0
ENDCHAR

STARTCHAR section
ENCODING 167
SWIDTH 613 0
DWIDTH 15 0
BBX 14 22 0 -5
BITMAP
03E0
0F78
1C18
381C
301C
3800
1E00
1F80
33E0
60F0
6038
7018
3C18
1F30
07E0
01C0
C0E0
C060
C060
E0E0
7BC0
3F00
ENDCHAR

STARTCHAR dieresis
ENCODING 168
SWIDTH 418 0
DWIDTH 10 0
BBX 6 2 4 14
BITMAP
CC
CC
ENDCHAR

STARTCHAR copyright
ENCODING 169
SWIDTH 837 0
DWIDTH 21 0
BBX 17 17 2 0
BITMAP
07F000
1C1C00
300600
61D300
47F100
C63180
8C0080
8C0080
8C0080
8C0080
8C0080
C61180
47E100
61C300
300600
1C1C00
07F000
ENDCHAR

STARTCHAR ordfeminine
ENCODING 170
SWIDTH 409 0
DWIDTH 10 0
BBX 9 9 0 8
BITMAP
0F80
3980
7180
6300
6300
6700
3D80
0000
FF00
ENDCHAR

STARTCHAR guillemotleft
ENCODING 171
SWIDTH 295 0
DWIDTH 8 0
BBX 7 8 0 2
BITMAP
12
36
6C
D8
90
D8
6C
24
ENDCHAR

STARTCHAR logicalnot
ENCODING 172
SWIDTH 787 0
DWIDTH 15 0
BBX 13 7 0 2
BITMAP
FFF8
FFF8
0018
0018
0018
0018
0018
ENDCHAR

STARTCHAR hyphen
ENCODING 173
SWIDTH 312 0
DWIDTH 8 0
BBX 6 2 0 5
BITMAP
FC
FC
ENDCHAR

STARTCHAR registered
ENCODING 174
SWIDTH 840 0
DWIDTH 21 0
BBX 17 17 2 0
BITMAP
07F000
1C1C00
300600
6FF300
463900
C61980
861880
863080
87E080
866080
863080
C61980
4F1D00
600300
300600
1C1C00
07F000
ENDCHAR

STARTCHAR macron
ENCODING 175
SWIDTH 438 0
DWIDTH 11 0
BBX 7 1 3 13
BITMAP
FE
ENDCHAR

STARTCHAR degree
ENCODING 176
SWIDTH 400 0
DWIDTH 9 0
BBX 8 7 0 10
BITMAP
3C
66
C3
C3
C3
66
3C
ENDCHAR

STARTCHAR plusminus
ENCODING 177
SWIDTH 613 0
DWIDTH 15 0
BBX 12 12 1 0
BITMAP
0600
0600
0600
FFF0
FFF0
0600
0600
0600
0000
0000
FFF0
FFF0
ENDCHAR

STARTCHAR twosuperior
ENCODING 178
SWIDTH 616 0
DWIDTH 9 0
BBX 9 10 0 7
BITMAP
1F00
3180
6180
0300
0600
0C00
1800
3080
6180
FF00
ENDCHAR

STARTCHAR threesuperior
ENCODING 179
SWIDTH 613 0
DWIDTH 9 0
BBX 9 10 0 7
BITMAP
1F00
3180
6180
0300
1E00
0600
0300
C300
E600
7C00
ENDCHAR

STARTCHAR acute
ENCODING 180
SWIDTH 320 0
DWIDTH 8 0
BBX 5 4 4 13
BITMAP
18
38
70
C0
ENDCHAR

STARTCHAR mu
ENCODING 181
SWIDTH 619 0
DWIDTH 15 0
BBX 16 18 -3 -6
BITMAP
0606
1E06
0606
0C0C
0C0C
0C0C
1C0C
1818
1818
1818
3E79
3F8E
3000
3000
7000
7000
F000
6000
ENDCHAR

STARTCHAR paragraph
ENCODING 182
SWIDTH 613 0
DWIDTH 15 0
BBX 13 17 2 0
BITMAP
1FF8
7F70
7F60
FE60
FEC0
FEC0
FEC0
7CC0
0D80
0D80
0D80
1980
1B00
1B00
1B00
3B00
FFC0
ENDCHAR

STARTCHAR periodcentered
ENCODING 183
SWIDTH 306 0
DWIDTH 8 0
BBX 3 3 2 6
BITMAP
60
E0
E0
ENDCHAR

STARTCHAR cedilla
ENCODING 184
SWIDTH 324 0
DWIDTH 8 0
BBX 5 5 1 -5
BITMAP
20
30
18
98
70
ENDCHAR

STARTCHAR onesuperior
ENCODING 185
SWIDTH 613 0
DWIDTH 9 0
BBX 5 10 1 7
BITMAP
18
78
18
10
30
30
20
60
60
F0
ENDCHAR

STARTCHAR ordmasculine
ENCODING 186
SWIDTH 409 0
DWIDTH 10 0
BBX 9 9 0 8
BITMAP
0F00
3980
3180
6180
6300
6700
3C00
0000
FF00
ENDCHAR

STARTCHAR guillemotright
ENCODING 187
SWIDTH 295 0
DWIDTH 8 0
BBX 7 8 0 2
BITMAP
48
6C
36
12
36
6C
D8
90
ENDCHAR

STARTCHAR onequarter
ENCODING 188
SWIDTH 20 0
DWIDTH 22 0
BBX 17 17 2 0
BITMAP
180300
780600
180400
100C00
301800
303000
202000
606180
60C380
F18780
010D00
031B00
063300
0C6200
087F80
180600
300F00
ENDCHAR

STARTCHAR onehalf
ENCODING 189
SWIDTH 20 0
DWIDTH 22 0
BBX 19 17 1 0
BITMAP
180300
780600
180400
100C00
301800
303000
202000
6067C0
60CC60
F19860
0100C0
030180
060300
0C0600
080C20
181860
303FC0
ENDCHAR

STARTCHAR threequarters
ENCODING 190
SWIDTH 20 0
DWIDTH 22 0
BBX 18 17 1 0
BITMAP
1F0180
318300
618200
030600
1E0C00
061800
031000
C330C0
E661C0
7CC3C0
008680
018D80
031980
063100
043FC0
0C0300
180780
ENDCHAR

STARTCHAR questiondown
ENCODING 191
SWIDTH 537 0
DWIDTH 14 0
BBX 12 17 0 -5
BITMAP
0060
00E0
00E0
0000
0080
0180
0300
0700
0E00
3C00
7000
E020
C070
C070
E0E0
7BC0
3F00
ENDCHAR

STARTCHAR Agrave
ENCODING 192
SWIDTH 687 0
DWIDTH 17 0
BBX 17 18 -2 0
BITMAP
030000
038000
01C000
006000
000000
003000
003000
007800
00D800
018C00
030C00
07FC00
0FFE00
0C0600
180600
300300
700300
F80780
ENDCHAR

STARTCHAR Aacute
ENCODING 193
SWIDTH 687 0
DWIDTH 17 0
BBX 17 18 -2 0
BITMAP
001800
003800
007000
00C000
000000
003000
003000
007800
00D800
018C00
030C00
07FC00
0FFE00
0C0600
180600
300300
700300
F80780
ENDCHAR

STARTCHAR Acircumflex
ENCODING 194
SWIDTH 687 0
DWIDTH 17 0
BBX 17 17 -2 0
BITMAP
001800
003C00
00C600
000000
003000
003000
007800
00D800
018C00
030C00
07FC00
0FFE00
0C0600
180600
300300
700300
F80780
ENDCHAR

STARTCHAR Atilde
ENCODING 195
SWIDTH 687 0
DWIDTH 17 0
BBX 17 17 -2 0
BITMAP
006200
00D600
018C00
000000
003000
003000
007800
00D800
018C00
030C00
07FC00
0FFE00
0C0600
180600
300300
700300
F80780
ENDCHAR

STARTCHAR Adieresis
ENCODING 196
SWIDTH 687 0
DWIDTH 17 0
BBX 17 17 -2 0
BITMAP
006600
006600
000000
000000
003000
003000
007800
00D800
018C00
030C00
07FC00
0FFE00
0C0600
180600
300300
700300
F80780
ENDCHAR

STARTCHAR Aring
ENCODING 197
SWIDTH 687 0
DWIDTH 17 0
BBX 17 18 -2 0
BITMAP
003000
004800
004800
003000
000000
003000
003000
007800
00D800
018C00
030C00
07FC00
0FFE00
0C0600
180600
300300
700300
F80780
ENDCHAR

STARTCHAR AE
ENCODING 198
SWIDTH 1216 0
DWIDTH 31 0
BBX 32 17 -2 0
BITMAP
00007FFE
0000FFFF
0001D803
00039801
00073800
000E3020
001C3060
003FFFE0
007FFFC0
00E060C0
01C06040
03806000
07006002
0E00E004
1C00C00C
3C00FFF8
FE01FFF8
ENDCHAR

STARTCHAR Ccedilla
ENCODING 199
SWIDTH 714 0
DWIDTH 18 0
BBX 17 22 0 -5
BITMAP
01FC80
07DF80
1E0380
380180
380080
700080
600000
E00000
E00000
E00000
C00000
C00000
E00300
700600
701C00
3EF800
0FE000
008000
00C000
006000
026000
01C000
ENDCHAR

STARTCHAR Egrave
ENCODING 200
SWIDTH 685 0
DWIDTH 17 0
BBX 17 18 -1 0
BITMAP
030000
038000
01C000
006000
000000
1FFF00
0FFF80
0C0180
0C2080
186000
1FE000
1FC000
30C000
304000
300200
600600
7FFC00
FFFC00
ENDCHAR

STARTCHAR Eacute
ENCODING 201
SWIDTH 685 0
DWIDTH 17 0
BBX 17 18 -1 0
BITMAP
003000
007000
00E000
018000
000000
1FFF00
0FFF80
0C0180
0C2080
186000
1FE000
1FC000
30C000
304000
300200
600600
7FFC00
FFFC00
ENDCHAR

STARTCHAR Ecircumflex
ENCODING 202
SWIDTH 685 0
DWIDTH 17 0
BBX 17 17 -1 0
BITMAP
003000
007800
018C00
000000
1FFF00
0FFF80
0C0180
0C2080
186000
1FE000
1FC000
30C000
304000
300200
600600
7FFC00
FFFC00
ENDCHAR

STARTCHAR Edieresis
ENCODING 203
SWIDTH 685 0
DWIDTH 17 0
BBX 17 17 -1 0
BITMAP
00CC00
00CC00
000000
000000
1FFF00
0FFF80
0C0180
0C2080
186000
1FE000
1FC000
30C000
304000
300200
600600
7FFC00
FFFC00
ENDCHAR

STARTCHAR Igrave
ENCODING 204
SWIDTH 312 0
DWIDTH 8 0
BBX 9 18 -1 0
BITMAP
3000
3800
1C00
0600
0000
0F80
0600
0600
0C00
0C00
0C00
1800
1800
1800
3000
3000
7000
F800
ENDCHAR

STARTCHAR Iacute
ENCODING 205
SWIDTH 312 0
DWIDTH 8 0
BBX 9 18 -1 0
BITMAP
0180
0380
0700
0C00
0000
0F80
0600
0600
0C00
0C00
0C00
1800
1800
1800
3000
3000
7000
F800
ENDCHAR

STARTCHAR Icircumflex
ENCODING 206
SWIDTH 312 0
DWIDTH 8 0
BBX 10 17 -1 0
BITMAP
0300
0780
18C0
0000
0F80
0600
0600
0C00
0C00
0C00
1800
1800
1800
3000
3000
7000
F800
ENDCHAR

STARTCHAR Idieresis
ENCODING 207
SWIDTH 312 0
DWIDTH 8 0
BBX 10 17 -1 0
BITMAP
0CC0
0CC0
0000
0000
0F80
0600
0600
0C00
0C00
0C00
1800
1800
1800
3000
3000
7000
F800
ENDCHAR

STARTCHAR Eth
ENCODING 208
SWIDTH 744 0
DWIDTH 19 0
BBX 18 17 0 0
BITMAP
1FFC00
0FFF00
0C0780
0C0180
1C01C0
1801C0
1800C0
1800C0
FFC1C0
3001C0
300180
300380
300300
700F00
603E00
7FF800
FFE000
ENDCHAR

STARTCHAR Ntilde
ENCODING 209
SWIDTH 709 0
DWIDTH 17 0
BBX 21 17 -3 0
BITMAP
003100
006B00
00C600
000000
0F00F8
070060
078060
0D80C0
0CC0C0
0C60C0
183180
181980
181980
180F00
300700
700300
F80300
ENDCHAR

STARTCHAR Ograve
ENCODING 210
SWIDTH 759 0
DWIDTH 19 0
BBX 18 18 0 0
BITMAP
00C000
00E000
007000
001800
000000
01FC00
07FF00
1C0380
380180
6000C0
6000C0
C000C0
C00180
C00180
600700
700E00
3FF800
0FE000
ENDCHAR

STARTCHAR Oacute
ENCODING 211
SWIDTH 759 0
DWIDTH 19 0
BBX 18 18 0 0
BITMAP
001800
003800
007000
00C000
000000
01FC00
07FF00
1C0380
380180
6000C0
6000C0
C000C0
C00180
C00180
600700
700E00
3FF800
0FE000
ENDCHAR

STARTCHAR Ocircumflex
ENCODING 212
SWIDTH 759 0
DWIDTH 19 0
BBX 18 17 0 0
BITMAP
003000
007800
018C00
000000
01FC00
07FF00
1C0380
380180
6000C0
6000C0
C000C0
C00180
C00180
600700
700E00
3FF800
0FE000
ENDCHAR

STARTCHAR Otilde
ENCODING 213
SWIDTH 759 0
DWIDTH 19 0
BBX 18 17 0 0
BITMAP
006200
00D600
018C00
000000
01FC00
07FF00
1C0380
380180
6000C0
6000C0
C000C0
C00180
C00180
600700
700E00
3FF800
0FE000
ENDCHAR

STARTCHAR Odieresis
ENCODING 214
SWIDTH 759 0
DWIDTH 19 0
BBX 18 17 0 0
BITMAP
00CC00
00CC00
000000
000000
01FC00
07FF00
1C0380
380180
6000C0
6000C0
C000C0
C00180
C00180
600700
700E00
3FF800
0FE000
ENDCHAR

STARTCHAR multiply
ENCODING 215
SWIDTH 613 0
DWIDTH 15 0
BBX 12 12 1 0
BITMAP
4020
E070
70E0
39C0
1F80
0F00
0F00
1F80
39C0
70E0
E070
4020
ENDCHAR

STARTCHAR Oslash
ENCODING 216
SWIDTH 758 0
DWIDTH 20 0
BBX 18 19 0 -1
BITMAP
000300
01FE00
07DF00
1E0F80
380B80
3819C0
7030C0
6060C0
E061C0
E0C1C0
E181C0
C30180
C30380
E60300
740F00
7C1E00
3EF800
3FE000
600000
ENDCHAR

STARTCHAR Ugrave
ENCODING 217
SWIDTH 729 0
DWIDTH 17 0
BBX 18 18 0 0
BITMAP
018000
01C000
00E000
003000
000000
7C07C0
300300
300300
600600
600600
600600
600C00
C00C00
C01800
C01800
E07000
7FE000
3F8000
ENDCHAR

STARTCHAR Uacute
ENCODING 218
SWIDTH 729 0
DWIDTH 17 0
BBX 18 18 0 0
BITMAP
003000
007000
00E000
018000
000000
7C07C0
300300
300300
600600
600600
600600
600C00
C00C00
C01800
C01800
E07000
7FE000
3F8000
ENDCHAR

STARTCHAR Ucircumflex
ENCODING 219
SWIDTH 729 0
DWIDTH 17 0
BBX 18 17 0 0
BITMAP
006000
00F000
031800
000000
7C07C0
300300
300300
600600
600600
600600
600C00
C00C00
C01800
C01800
E07000
7FE000
3F8000
ENDCHAR

STARTCHAR Udieresis
ENCODING 220
SWIDTH 729 0
DWIDTH 17 0
BBX 18 17 0 0
BITMAP
019800
019800
000000
000000
7C07C0
300300
300300
600600
600600
600600
600C00
C00C00
C01800
C01800
E07000
7FE000
3F8000
ENDCHAR

STARTCHAR Yacute
ENCODING 221
SWIDTH 658 0
DWIDTH 15 0
BBX 17 18 0 0
BITMAP
003000
007000
00E000
018000
000000
FC0F80
300C00
301800
183000
186000
0CC000
0F8000
070000
060000
0C0000
0C0000
1C0000
3E0000
ENDCHAR

STARTCHAR Thorn
ENCODING 222
SWIDTH 588 0
DWIDTH 15 0
BBX 15 17 -1 0
BITMAP
1F00
0C00
0C00
0FF0
1FFC
180E
1806
1806
3806
380C
303C
3FF8
3FC0
7000
6000
6000
F800
ENDCHAR

STARTCHAR germandbls
ENCODING 223
SWIDTH 623 0
DWIDTH 15 0
BBX 17 20 -4 -3
BITMAP
003E00
00F700
00C300
018300
018300
078600
071C00
033800
031E00
030700
060380
060180
060180
060380
060700
0EDE00
0C7C00
0C0000
D80000
700000
ENDCHAR

STARTCHAR agrave
ENCODING 224
SWIDTH 615 0
DWIDTH 15 0
BBX 14 17 0 0
BITMAP
0C00
0E00
0700
0180
0000
07D8
1E78
3830
7030
6030
E030
C060
C060
C060
60E4
73FC
1F38
ENDCHAR

STARTCHAR aacute
ENCODING 225
SWIDTH 615 0
DWIDTH 15 0
BBX 14 17 0 0
BITMAP
0180
0380
0700
0C00
0000
07D8
1E78
3830
7030
6030
E030
C060
C060
C060
60E4
73FC
1F38
ENDCHAR

STARTCHAR acircumflex
ENCODING 226
SWIDTH 615 0
DWIDTH 15 0
BBX 14 16 0 0
BITMAP
0300
0780
18C0
0000
07D8
1E78
3830
7030
6030
E030
C060
C060
C060
60E4
73FC
1F38
ENDCHAR

STARTCHAR atilde
ENCODING 227
SWIDTH 615 0
DWIDTH 15 0
BBX 14 16 0 0
BITMAP
0620
0D60
18C0
0000
07D8
1E78
3830
7030
6030
E030
C060
C060
C060
60E4
73FC
1F38
ENDCHAR

STARTCHAR adieresis
ENCODING 228
SWIDTH 615 0
DWIDTH 15 0
BBX 14 16 0 0
BITMAP
0CC0
0CC0
0000
0000
07D8
1E78
3830
7030
6030
E030
C060
C060
C060
60E4
73FC
1F38
ENDCHAR

STARTCHAR aring
ENCODING 229
SWIDTH 615 0
DWIDTH 15 0
BBX 14 17 0 0
BITMAP
0300
0480
0480
0300
0000
07D8
1E78
3830
7030
6030
E030
C060
C060
C060
60E4
73FC
1F38
ENDCHAR

STARTCHAR ae
ENCODING 230
SWIDTH 859 0
DWIDTH 22 0
BBX 21 12 0 0
BITMAP
0FC3F0
3CEF38
306C18
307818
00F070
1FF1E0
787F80
E06000
C0E000
C1E030
E730E0
7C1F80
ENDCHAR

STARTCHAR ccedilla
ENCODING 231
SWIDTH 484 0
DWIDTH 12 0
BBX 11 17 0 -5
BITMAP
0F80
3CE0
7060
6060
E000
C000
C000
C000
C000
60E0
73C0
1F00
0400
0600
0300
1300
0E00
ENDCHAR

STARTCHAR egrave
ENCODING 232
SWIDTH 527 0
DWIDTH 13 0
BBX 12 17 0 0
BITMAP
1800
1C00
0E00
0300
0000
07E0
1E70
3830
7030
60E0
E3C0
FF00
C000
C000
C060
61C0
3F00
ENDCHAR

STARTCHAR eacute
ENCODING 233
SWIDTH 527 0
DWIDTH 13 0
BBX 12 17 0 0
BITMAP
0300
0700
0E00
1800
0000
07E0
1E70
3830
7030
60E0
E3C0
FF00
C000
C000
C060
61C0
3F00
ENDCHAR

STARTCHAR ecircumflex
ENCODING 234
SWIDTH 527 0
DWIDTH 13 0
BBX 12 16 0 0
BITMAP
0180
03C0
0C60
0000
07E0
1E70
3830
7030
60E0
E3C0
FF00
C000
C000
C060
61C0
3F00
ENDCHAR

STARTCHAR edieresis
ENCODING 235
SWIDTH 527 0
DWIDTH 13 0
BBX 12 16 0 0
BITMAP
0CC0
0CC0
0000
0000
07E0
1E70
3830
7030
60E0
E3C0
FF00
C000
C000
C060
61C0
3F00
ENDCHAR

STARTCHAR igrave
ENCODING 236
SWIDTH 285 0
DWIDTH 7 0
BBX 6 17 0 0
BITMAP
C0
E0
70
18
00
38
F8
30
30
20
60
60
60
C0
C0
EC
70
ENDCHAR

STARTCHAR iacute
ENCODING 237
SWIDTH 285 0
DWIDTH 7 0
BBX 6 17 0 0
BITMAP
18
38
70
C0
00
38
F8
30
30
20
60
60
60
C0
C0
EC
70
ENDCHAR

STARTCHAR icircumflex
ENCODING 238
SWIDTH 285 0
DWIDTH 7 0
BBX 7 16 0 0
BITMAP
18
3C
C6
00
38
F8
30
30
20
60
60
60
C0
C0
EC
70
ENDCHAR

STARTCHAR idieresis
ENCODING 239
SWIDTH 285 0
DWIDTH 7 0
BBX 6 16 0 0
BITMAP
CC
CC
00
00
38
F8
30
30
20
60
60
60
C0
C0
EC
70
ENDCHAR

STARTCHAR eth
ENCODING 240
SWIDTH 547 0
DWIDTH 14 0
BBX 12 17 0 0
BITMAP
0C60
0780
0F00
3180
00C0
0FC0
3CE0
7060
6030
E030
C030
C030
C070
C060
60E0
73C0
1F00
ENDCHAR

STARTCHAR ntilde
ENCODING 241
SWIDTH 607 0
DWIDTH 15 0
BBX 13 16 0 0
BITMAP
0C40
1AC0
3180
0000
33E0
FE70
3830
3030
3030
6060
6060
6060
60C0
C0C8
C0F0
C060
ENDCHAR

STARTCHAR ograve
ENCODING 242
SWIDTH 547 0
DWIDTH 14 0
BBX 12 17 0 0
BITMAP
1800
1C00
0E00
0300
0000
0F80
3CE0
7060
6030
E030
C030
C030
C070
C060
60E0
73C0
1F00
ENDCHAR

STARTCHAR oacute
ENCODING 243
SWIDTH 547 0
DWIDTH 14 0
BBX 12 17 0 0
BITMAP
0300
0700
0E00
1800
0000
0F80
3CE0
7060
6030
E030
C030
C030
C070
C060
60E0
73C0
1F00
ENDCHAR

STARTCHAR ocircumflex
ENCODING 244
SWIDTH 547 0
DWIDTH 14 0
BBX 12 16 0 0
BITMAP
0300
0780
18C0
0000
0F80
3CE0
7060
6030
E030
C030
C030
C070
C060
60E0
73C0
1F00
ENDCHAR

STARTCHAR otilde
ENCODING 245
SWIDTH 547 0
DWIDTH 14 0
BBX 12 16 0 0
BITMAP
0C40
1AC0
3180
0000
0F80
3CE0
7060
6030
E030
C030
C030
C070
C060
60E0
73C0
1F00
ENDCHAR

STARTCHAR odieresis
ENCODING 246
SWIDTH 547 0
DWIDTH 14 0
BBX 12 16 0 0
BITMAP
0CC0
0CC0
0000
0000
0F80
3CE0
7060
6030
E030
C030
C030
C070
C060
60E0
73C0
1F00
ENDCHAR

STARTCHAR divide
ENCODING 247
SWIDTH 613 0
DWIDTH 15 0
BBX 13 12 0 0
BITMAP
0700
0700
0700
0000
0000
FFF8
FFF8
0000
0000
0700
0700
0700
ENDCHAR

STARTCHAR oslash
ENCODING 248
SWIDTH 546 0
DWIDTH 14 0
BBX 14 12 -1 0
BITMAP
07CC
1E38
3830
3078
70D8
6198
6318
6638
6C30
3870
79E0
CF80
ENDCHAR

STARTCHAR ugrave
ENCODING 249
SWIDTH 619 0
DWIDTH 15 0
BBX 13 17 0 0
BITMAP
0C00
0E00
0700
0180
0000
3030
F030
3030
6060
6060
6060
E060
C0C0
C0C0
C0C0
F3C8
7C70
ENDCHAR

STARTCHAR uacute
ENCODING 250
SWIDTH 619 0
DWIDTH 15 0
BBX 13 17 0 0
BITMAP
0180
0380
0700
0C00
0000
3030
F030
3030
6060
6060
6060
E060
C0C0
C0C0
C0C0
F3C8
7C70
ENDCHAR

STARTCHAR ucircumflex
ENCODING 251
SWIDTH 619 0
DWIDTH 15 0
BBX 13 16 0 0
BITMAP
0300
0780
18C0
0000
3030
F030
3030
6060
6060
6060
E060
C0C0
C0C0
C0C0
F3C8
7C70
ENDCHAR

STARTCHAR udieresis
ENCODING 252
SWIDTH 619 0
DWIDTH 15 0
BBX 13 16 0 0
BITMAP
0CC0
0CC0
0000
0000
3030
F030
3030
6060
6060
6060
E060
C0C0
C0C0
C0C0
F3C8
7C70
ENDCHAR

STARTCHAR yacute
ENCODING 253
SWIDTH 597 0
DWIDTH 15 0
BBX 13 23 0 -6
BITMAP
0060
00E0
01C0
0300
0000
1818
7818
1818
3030
3030
3030
7030
6060
6060
6060
79E0
3EC0
00C0
01C0
0180
C180
E700
7E00
ENDCHAR

STARTCHAR thorn
ENCODING 254
SWIDTH 593 0
DWIDTH 15 0
BBX 16 23 -3 -6
BITMAP
0300
0F00
0300
0300
0300
0638
06FE
0786
0703
0603
0E03
0C03
0C07
0C06
1E0E
1BBC
19F0
1800
3800
3000
3000
7000
FC00
ENDCHAR

STARTCHAR ydieresis
ENCODING 255
SWIDTH 597 0
DWIDTH 15 0
BBX 13 22 0 -6
BITMAP
0330
0330
0000
0000
1818
7818
1818
3030
3030
3030
7030
6060
6060
6060
79E0
3EC0
00C0
01C0
0180
C180
E700
7E00
ENDCHAR
ENDFONT
